<svg width="236" height="61" viewBox="0 0 236 61" fill="none" xmlns="http://www.w3.org/2000/svg">
<g opacity="0.5">
<line x1="0.967471" y1="20.447" x2="0.967471" y2="38.8289" stroke="#F03535" stroke-width="1.93494" stroke-linecap="round"/>
<path fill-rule="evenodd" clip-rule="evenodd" d="M13.1077 25.31C12.954 25.5961 12.954 25.9402 13.1077 26.2262L15.7219 31.0895H1.25177C0.717452 31.0895 0.284302 30.6563 0.284302 30.122V21.4147C0.284302 20.8804 0.717454 20.4473 1.25177 20.4473H15.7216L13.1077 25.31Z" fill="#F03535"/>
<circle cx="44.5037" cy="30.1231" r="20.3169" fill="#FAC27D"/>
<path d="M51.6385 20.3071H50.2429V20.8575C50.2429 21.7026 49.555 22.3906 48.7098 22.3906H40.2974C39.4522 22.3906 38.7643 21.7026 38.7643 20.8575V20.3071H37.3688C36.504 20.3071 35.7964 21.0147 35.7964 21.8795V40.1785C35.7964 41.0433 36.504 41.7509 37.3688 41.7509H51.6385C52.5033 41.7509 53.2109 41.0433 53.2109 40.1785V21.8795C53.2109 21.0147 52.5033 20.3071 51.6385 20.3071ZM44.5036 38.0361H39.354C39.0198 38.0361 38.7643 37.7806 38.7643 37.4464C38.7643 37.1123 39.0198 36.8568 39.354 36.8568H44.5036C44.8378 36.8568 45.0933 37.1123 45.0933 37.4464C45.0933 37.7806 44.8181 38.0361 44.5036 38.0361ZM49.6336 34.1051H39.354C39.0198 34.1051 38.7643 33.8495 38.7643 33.5154C38.7643 33.1813 39.0198 32.9258 39.354 32.9258H49.6336C49.9678 32.9258 50.2233 33.1813 50.2233 33.5154C50.2233 33.8495 49.9678 34.1051 49.6336 34.1051ZM49.6336 30.1544H39.354C39.0198 30.1544 38.7643 29.8989 38.7643 29.5647C38.7643 29.2306 39.0198 28.9751 39.354 28.9751H49.6336C49.9678 28.9751 50.2233 29.2306 50.2233 29.5647C50.2233 29.8989 49.9678 30.1544 49.6336 30.1544ZM49.6336 26.2233H39.354C39.0198 26.2233 38.7643 25.9678 38.7643 25.6337C38.7643 25.2995 39.0198 25.044 39.354 25.044H49.6336C49.9678 25.044 50.2233 25.2995 50.2233 25.6337C50.2233 25.9678 49.9678 26.2233 49.6336 26.2233Z" fill="white"/>
<path d="M48.7098 19.4621H45.8402V18.9314C45.8402 18.2435 45.3488 17.6342 44.6805 17.5555C43.855 17.4573 43.1671 18.0862 43.1671 18.8921V19.4818H40.2974C40.1008 19.4818 39.9436 19.639 39.9436 19.8355V20.5628V20.8183C39.9436 21.1721 40.2188 21.4473 40.5726 21.4473H48.415C48.7688 21.4473 49.044 21.1721 49.044 20.8183V20.5628V19.8355C49.044 19.6193 48.8867 19.4621 48.7098 19.4621ZM44.366 18.7152C44.7395 18.6169 45.0736 18.9511 44.9753 19.3245C44.936 19.5014 44.7788 19.639 44.6019 19.698C44.2284 19.7962 43.8943 19.4621 43.9926 19.0887C44.0515 18.8921 44.1891 18.7545 44.366 18.7152Z" fill="white"/>
<g filter="url(#filter0_d_863_3558)">
<path fill-rule="evenodd" clip-rule="evenodd" d="M61.9181 53.7599C61.9181 53.0156 62.2562 52.3152 62.8124 51.8207C68.7928 46.5043 72.5603 38.753 72.5603 30.1217C72.5603 21.4905 68.7928 13.7392 62.8124 8.42278C62.2562 7.92826 61.9181 7.22783 61.9181 6.48353C61.9181 5.11191 63.03 4 64.4016 4H296.046C301.389 4 305.721 8.33152 305.721 13.6747V46.5687C305.721 51.9119 301.389 56.2435 296.046 56.2435H64.4016C63.03 56.2435 61.9181 55.1315 61.9181 53.7599Z" fill="#FEF6EB"/>
</g>
<path d="M87.6014 24.1291C87.7324 23.9578 87.8987 23.8419 88.1003 23.7814C88.191 23.7512 88.2817 23.7361 88.3724 23.7361C88.4832 23.7361 88.5991 23.7562 88.7201 23.7965C88.8914 23.8671 89.0022 23.9931 89.0526 24.1745C89.0728 24.2349 89.0829 24.2904 89.0829 24.3407C89.0829 24.4617 89.0426 24.5725 88.9619 24.6733C88.1355 25.7013 87.1933 26.6133 86.1351 27.4094C86.0242 27.4901 85.9083 27.5304 85.7874 27.5304C85.7471 27.5304 85.6967 27.5253 85.6362 27.5153C85.4649 27.475 85.3289 27.3691 85.2281 27.1978C85.1575 27.0769 85.1223 26.9509 85.1223 26.8199C85.1223 26.7695 85.1273 26.7191 85.1374 26.6687C85.1676 26.4772 85.2583 26.3261 85.4095 26.2152C86.2863 25.5602 87.0169 24.8648 87.6014 24.1291ZM87.9945 27.4699C88.1053 27.3087 88.2514 27.1978 88.4328 27.1373C88.5135 27.1071 88.5991 27.092 88.6898 27.092C88.7805 27.092 88.8763 27.1122 88.977 27.1525C89.1383 27.223 89.2491 27.3439 89.3096 27.5153C89.3298 27.5757 89.3398 27.6362 89.3398 27.6967C89.3398 27.7974 89.3096 27.8932 89.2491 27.9839C88.9972 28.3971 88.7201 28.8052 88.4177 29.2083C88.3673 29.2688 88.3421 29.3343 88.3421 29.4049V37.0086C88.3421 37.2001 88.2766 37.3613 88.1456 37.4923C88.0146 37.6334 87.8534 37.7039 87.6619 37.7039C87.4704 37.7039 87.3041 37.6334 87.163 37.4923C87.032 37.3613 86.9665 37.2001 86.9665 37.0086V31.0223C86.9665 31.0022 86.9564 30.9871 86.9363 30.977C86.9262 30.9669 86.9111 30.972 86.8909 30.9921C86.6088 31.2944 86.3014 31.5968 85.9688 31.8991C85.858 31.9898 85.732 32.0352 85.5909 32.0352C85.5405 32.0352 85.4901 32.0301 85.4397 32.0201C85.2482 31.9697 85.1072 31.8538 85.0165 31.6724C84.9459 31.5313 84.9106 31.3851 84.9106 31.234C84.9106 31.1735 84.9207 31.108 84.9409 31.0375C84.9812 30.8057 85.092 30.6192 85.2734 30.4781C86.3518 29.5812 87.2588 28.5785 87.9945 27.4699ZM90.8818 33.9248C90.781 33.7938 90.7457 33.6476 90.7759 33.4864C90.8062 33.3151 90.8969 33.1891 91.048 33.1085C91.169 33.0379 91.3 33.0026 91.4411 33.0026C91.4915 33.0026 91.5419 33.0077 91.5922 33.0178C91.7837 33.0581 91.9399 33.1488 92.0609 33.2899C92.4741 33.8038 92.8318 34.3077 93.1342 34.8015C93.2047 34.9124 93.24 35.0283 93.24 35.1492C93.24 35.2097 93.2299 35.2752 93.2097 35.3457C93.1593 35.5372 93.0434 35.6833 92.862 35.7841C92.7613 35.8446 92.6555 35.8748 92.5446 35.8748C92.4741 35.8748 92.4035 35.8647 92.333 35.8446C92.1516 35.7841 92.0105 35.6682 91.9097 35.4969C91.6275 34.993 91.2849 34.469 90.8818 33.9248ZM98.8332 28.5583C98.9642 28.6893 99.0297 28.8455 99.0297 29.0269C99.0297 29.2083 98.9642 29.3645 98.8332 29.4956C98.7122 29.6165 98.5611 29.677 98.3797 29.677H97.0796C97.0091 29.677 96.9738 29.7173 96.9738 29.7979V31.0677C96.9738 31.1483 97.0091 31.1886 97.0796 31.1886H98.2587C98.4401 31.1886 98.5963 31.2541 98.7273 31.3851C98.8584 31.5061 98.9239 31.6573 98.9239 31.8387C98.9239 32.0201 98.8584 32.1763 98.7273 32.3073C98.5963 32.4383 98.4401 32.5038 98.2587 32.5038H97.0796C97.0091 32.5038 96.9738 32.5391 96.9738 32.6096V36.0865C96.9738 36.4896 96.9234 36.7919 96.8226 36.9935C96.7219 37.2051 96.5405 37.3613 96.2784 37.4621C95.9358 37.6032 95.3362 37.6838 94.4795 37.7039C94.4695 37.7039 94.4644 37.7039 94.4644 37.7039C94.2629 37.7039 94.0815 37.6384 93.9202 37.5074C93.759 37.3764 93.6431 37.2051 93.5725 36.9935C93.5221 36.8322 93.5423 36.681 93.633 36.54C93.7338 36.4089 93.8648 36.3485 94.026 36.3586C94.3183 36.3686 94.5652 36.3737 94.7668 36.3737C94.9683 36.3737 95.1245 36.3686 95.2354 36.3586C95.3563 36.3485 95.4369 36.3233 95.4772 36.283C95.5276 36.2427 95.5528 36.1671 95.5528 36.0562V32.6096C95.5528 32.5391 95.5125 32.5038 95.4319 32.5038H90.0957C89.9143 32.5038 89.7581 32.4383 89.6271 32.3073C89.4961 32.1763 89.4305 32.0201 89.4305 31.8387C89.4305 31.6573 89.4961 31.5061 89.6271 31.3851C89.7581 31.2541 89.9143 31.1886 90.0957 31.1886H95.4319C95.5125 31.1886 95.5528 31.1483 95.5528 31.0677V29.7979C95.5528 29.7173 95.5125 29.677 95.4319 29.677H89.9143C89.7329 29.677 89.5767 29.6165 89.4457 29.4956C89.3247 29.3645 89.2643 29.2083 89.2643 29.0269C89.2643 28.8455 89.3247 28.6893 89.4457 28.5583C89.5767 28.4273 89.7329 28.3618 89.9143 28.3618H93.3156C93.3861 28.3618 93.4214 28.3265 93.4214 28.256V26.8048C93.4214 26.7342 93.3861 26.699 93.3156 26.699H90.8213C90.6399 26.699 90.4837 26.6335 90.3527 26.5024C90.2217 26.3714 90.1562 26.2152 90.1562 26.0338C90.1562 25.8524 90.2217 25.7013 90.3527 25.5803C90.4837 25.4493 90.6399 25.3838 90.8213 25.3838H93.3156C93.3861 25.3838 93.4214 25.3435 93.4214 25.2629V24.2652C93.4214 24.0737 93.4919 23.9074 93.633 23.7663C93.7741 23.6252 93.9404 23.5547 94.1319 23.5547C94.3334 23.5547 94.5047 23.6252 94.6458 23.7663C94.7869 23.9074 94.8575 24.0737 94.8575 24.2652V25.2629C94.8575 25.3435 94.8927 25.3838 94.9633 25.3838H97.6087C97.7901 25.3838 97.9463 25.4493 98.0773 25.5803C98.2083 25.7013 98.2738 25.8524 98.2738 26.0338C98.2738 26.2152 98.2083 26.3714 98.0773 26.5024C97.9463 26.6335 97.7901 26.699 97.6087 26.699H94.9633C94.8927 26.699 94.8575 26.7342 94.8575 26.8048V28.256C94.8575 28.3265 94.8927 28.3618 94.9633 28.3618H98.3797C98.5611 28.3618 98.7122 28.4273 98.8332 28.5583ZM113.708 25.4594C113.869 25.4594 114.01 25.5199 114.131 25.6408C114.252 25.7516 114.313 25.8927 114.313 26.0641C114.313 26.2253 114.252 26.3664 114.131 26.4873C114.01 26.6083 113.869 26.6687 113.708 26.6687H110.05C109.889 26.6687 109.747 26.6083 109.627 26.4873C109.506 26.3664 109.445 26.2253 109.445 26.0641C109.445 25.8927 109.506 25.7516 109.627 25.6408C109.747 25.5199 109.889 25.4594 110.05 25.4594H111.108C111.189 25.4594 111.229 25.4191 111.229 25.3385V24.1593C111.229 23.9779 111.294 23.8217 111.425 23.6907C111.556 23.5597 111.713 23.4942 111.894 23.4942C112.075 23.4942 112.232 23.5597 112.363 23.6907C112.494 23.8217 112.559 23.9779 112.559 24.1593V25.3385C112.559 25.4191 112.599 25.4594 112.68 25.4594H113.708ZM113.36 29.1025C113.31 29.2436 113.219 29.3444 113.088 29.4049C112.967 29.4653 112.836 29.4804 112.695 29.4502C112.564 29.4099 112.463 29.3293 112.393 29.2083C112.332 29.0874 112.317 28.9614 112.348 28.8304C112.509 28.256 112.635 27.7622 112.725 27.349C112.756 27.1777 112.841 27.0466 112.982 26.9559C113.124 26.8652 113.275 26.84 113.436 26.8804C113.597 26.9106 113.718 26.9963 113.799 27.1373C113.879 27.2784 113.894 27.4296 113.844 27.5908C113.643 28.256 113.481 28.7599 113.36 29.1025ZM104.411 25.4745C104.583 25.4745 104.724 25.535 104.835 25.6559C104.955 25.7668 105.016 25.9079 105.016 26.0792C105.016 26.2404 104.955 26.3815 104.835 26.5024C104.724 26.6234 104.583 26.6838 104.411 26.6838H101.07C100.909 26.6838 100.768 26.6234 100.647 26.5024C100.526 26.3815 100.466 26.2404 100.466 26.0792C100.466 25.9079 100.526 25.7668 100.647 25.6559C100.768 25.535 100.909 25.4745 101.07 25.4745H102.023C102.103 25.4745 102.144 25.4342 102.144 25.3536V24.1593C102.144 23.9779 102.209 23.8217 102.34 23.6907C102.471 23.5597 102.627 23.4942 102.809 23.4942C102.99 23.4942 103.146 23.5597 103.277 23.6907C103.408 23.8217 103.474 23.9779 103.474 24.1593V25.3536C103.474 25.4342 103.509 25.4745 103.58 25.4745H104.411ZM104.215 29.1328C104.164 29.2638 104.079 29.3645 103.958 29.4351C103.837 29.4956 103.711 29.5056 103.58 29.4653C103.449 29.4351 103.348 29.3645 103.277 29.2537C103.217 29.1328 103.202 29.0068 103.232 28.8758C103.363 28.392 103.479 27.8881 103.58 27.3641C103.61 27.2029 103.691 27.0769 103.822 26.9862C103.953 26.8955 104.099 26.8652 104.26 26.8955C104.421 26.9257 104.542 27.0114 104.623 27.1525C104.703 27.2835 104.724 27.4246 104.683 27.5757C104.482 28.2711 104.326 28.7901 104.215 29.1328ZM102.37 28.6944C102.391 28.8556 102.35 29.0068 102.25 29.1479C102.159 29.289 102.033 29.3797 101.872 29.42C101.731 29.4603 101.6 29.4401 101.479 29.3595C101.368 29.2688 101.302 29.1529 101.282 29.0118C101.242 28.5583 101.161 28.0796 101.04 27.5757C101 27.4447 101.015 27.3187 101.086 27.1978C101.156 27.0668 101.262 26.9862 101.403 26.9559C101.544 26.9156 101.675 26.9307 101.796 27.0013C101.927 27.0618 102.018 27.1625 102.068 27.3036C102.199 27.7471 102.3 28.2106 102.37 28.6944ZM104.547 32.2317C104.698 32.2115 104.835 32.2518 104.955 32.3526C105.086 32.4534 105.157 32.5794 105.167 32.7305C105.177 32.9019 105.132 33.053 105.031 33.184C104.93 33.3151 104.794 33.3957 104.623 33.4259C103.968 33.5468 103.605 33.6174 103.534 33.6375C103.464 33.6476 103.424 33.6879 103.414 33.7585C103.262 35.25 102.713 36.4291 101.766 37.2958C101.655 37.3966 101.529 37.447 101.388 37.447C101.358 37.447 101.327 37.4419 101.297 37.4318C101.126 37.4117 100.975 37.3311 100.844 37.19C100.733 37.069 100.682 36.928 100.693 36.7667C100.703 36.6055 100.773 36.4644 100.904 36.3434C101.519 35.7791 101.907 34.993 102.068 33.9852C102.068 33.9651 102.058 33.9449 102.038 33.9248C102.018 33.9046 101.993 33.8945 101.962 33.8945C101.62 33.955 101.332 34.0054 101.101 34.0457C101.06 34.0457 101.02 34.0457 100.98 34.0457C100.849 34.0457 100.728 34.0104 100.617 33.9399C100.466 33.8391 100.375 33.7031 100.345 33.5317C100.335 33.4914 100.33 33.4511 100.33 33.4108C100.33 33.2899 100.37 33.174 100.451 33.0631C100.551 32.922 100.687 32.8414 100.859 32.8212C100.97 32.8011 101.358 32.7406 102.023 32.6398C102.103 32.6298 102.144 32.5895 102.144 32.5189V30.9316C102.144 30.851 102.103 30.8107 102.023 30.8107H100.904C100.743 30.8107 100.602 30.7553 100.481 30.6444C100.37 30.5235 100.315 30.3824 100.315 30.2212C100.315 30.0498 100.37 29.9087 100.481 29.7979C100.602 29.677 100.743 29.6165 100.904 29.6165H104.578C104.739 29.6165 104.88 29.677 105.001 29.7979C105.122 29.9087 105.182 30.0498 105.182 30.2212C105.182 30.3824 105.122 30.5235 105.001 30.6444C104.88 30.7553 104.739 30.8107 104.578 30.8107H103.58C103.509 30.8107 103.474 30.851 103.474 30.9316V32.2922C103.474 32.3728 103.509 32.408 103.58 32.398L104.547 32.2317ZM108.266 26.9559C108.508 26.9559 108.72 27.0466 108.901 27.228C109.062 27.3893 109.143 27.5908 109.143 27.8327C109.143 30.332 109.087 32.6197 108.976 34.6957C108.916 35.8748 108.795 36.6004 108.614 36.8725C108.432 37.2051 108.15 37.4067 107.767 37.4772C107.616 37.4974 107.425 37.5074 107.193 37.5074C107.162 37.5074 107.137 37.5074 107.117 37.5074C106.946 37.4974 106.795 37.4318 106.664 37.3109C106.533 37.2001 106.447 37.059 106.407 36.8876C106.366 36.7466 106.386 36.6155 106.467 36.4946C106.558 36.3838 106.669 36.3334 106.8 36.3434C106.911 36.3434 107.037 36.3434 107.178 36.3434C107.188 36.3434 107.198 36.3434 107.208 36.3434C107.359 36.3434 107.48 36.2578 107.571 36.0865C107.692 35.895 107.777 35.245 107.828 34.1364C107.888 33.0178 107.933 31.0879 107.964 28.3467C107.964 28.2661 107.923 28.2258 107.843 28.2258H107.223C107.152 28.2258 107.112 28.2661 107.102 28.3467C107.021 30.3018 106.84 31.9949 106.558 33.4259C106.286 34.8469 105.862 36.0965 105.288 37.1749C105.207 37.3059 105.086 37.3815 104.925 37.4016C104.764 37.4218 104.623 37.3764 104.502 37.2656C104.371 37.1547 104.29 37.0086 104.26 36.8272C104.26 36.7869 104.26 36.7466 104.26 36.7062C104.26 36.5752 104.29 36.4493 104.351 36.3283C104.885 35.4012 105.278 34.2775 105.53 32.9573C105.782 31.6371 105.943 30.0952 106.014 28.3316C106.014 28.261 105.983 28.2258 105.923 28.2258H105.802C105.621 28.2258 105.469 28.1653 105.348 28.0443C105.228 27.9234 105.167 27.7773 105.167 27.606C105.167 27.4246 105.228 27.2734 105.348 27.1525C105.469 27.0215 105.621 26.9559 105.802 26.9559H105.953C106.024 26.9559 106.059 26.9257 106.059 26.8652C106.069 26.3412 106.074 25.8071 106.074 25.2629C106.074 24.8598 106.069 24.4566 106.059 24.0535C106.059 23.9024 106.114 23.7714 106.225 23.6605C106.336 23.5496 106.467 23.4942 106.618 23.4942C106.78 23.4942 106.916 23.5496 107.026 23.6605C107.137 23.7714 107.193 23.9024 107.193 24.0535C107.183 24.759 107.173 25.6912 107.162 26.8501C107.162 26.9207 107.198 26.9559 107.268 26.9559H108.266ZM110.02 27.5908C109.979 27.4498 109.994 27.3187 110.065 27.1978C110.135 27.0668 110.236 26.9811 110.367 26.9408C110.418 26.9307 110.473 26.9257 110.534 26.9257C110.614 26.9257 110.695 26.9459 110.775 26.9862C110.906 27.0567 110.997 27.1625 111.047 27.3036C111.189 27.7571 111.294 28.2308 111.365 28.7246C111.385 28.8858 111.35 29.037 111.259 29.1781C111.168 29.3192 111.042 29.4099 110.881 29.4502C110.74 29.4905 110.609 29.4704 110.488 29.3897C110.377 29.299 110.312 29.1831 110.292 29.0421C110.241 28.5684 110.151 28.0847 110.02 27.5908ZM114.313 29.7828C114.434 29.8936 114.494 30.0347 114.494 30.206C114.494 30.3673 114.434 30.5084 114.313 30.6293C114.202 30.7402 114.066 30.7956 113.905 30.7956H112.68C112.599 30.7956 112.559 30.8359 112.559 30.9165V32.655C112.559 32.7255 112.599 32.7608 112.68 32.7608H113.678C113.849 32.7608 113.99 32.8212 114.101 32.9422C114.222 33.053 114.282 33.1941 114.282 33.3654C114.282 33.5267 114.222 33.6678 114.101 33.7887C113.99 33.8996 113.849 33.955 113.678 33.955H112.68C112.599 33.955 112.559 33.9953 112.559 34.0759V37.0539C112.559 37.2353 112.494 37.3915 112.363 37.5225C112.232 37.6536 112.075 37.7191 111.894 37.7191C111.713 37.7191 111.556 37.6536 111.425 37.5225C111.294 37.3915 111.229 37.2353 111.229 37.0539V34.0759C111.229 33.9953 111.189 33.955 111.108 33.955H110.11C109.939 33.955 109.793 33.8996 109.672 33.7887C109.561 33.6678 109.506 33.5267 109.506 33.3654C109.506 33.1941 109.561 33.053 109.672 32.9422C109.793 32.8212 109.939 32.7608 110.11 32.7608H111.108C111.189 32.7608 111.229 32.7255 111.229 32.655V30.9165C111.229 30.8359 111.189 30.7956 111.108 30.7956H109.944C109.783 30.7956 109.642 30.7402 109.521 30.6293C109.41 30.5084 109.354 30.3673 109.354 30.206C109.354 30.0347 109.41 29.8936 109.521 29.7828C109.642 29.6618 109.783 29.6014 109.944 29.6014H113.905C114.066 29.6014 114.202 29.6618 114.313 29.7828ZM119.498 24.764C119.659 24.8749 119.755 25.0311 119.785 25.2326C119.795 25.2729 119.8 25.3082 119.8 25.3385C119.8 25.4997 119.75 25.6458 119.649 25.7768C119.538 25.928 119.387 26.0137 119.195 26.0338C119.165 26.0439 119.135 26.0489 119.105 26.0489C118.943 26.0489 118.802 25.9986 118.681 25.8978C118.228 25.5753 117.694 25.2528 117.079 24.9303C116.938 24.8497 116.847 24.7287 116.807 24.5675C116.767 24.4063 116.797 24.2551 116.898 24.114C117.009 23.9628 117.155 23.8621 117.336 23.8117C117.407 23.7915 117.477 23.7814 117.548 23.7814C117.659 23.7814 117.769 23.8066 117.88 23.857C118.485 24.1392 119.024 24.4415 119.498 24.764ZM118.742 28.8002C118.913 28.911 119.019 29.0672 119.059 29.2688C119.069 29.3192 119.074 29.3696 119.074 29.42C119.074 29.5611 119.029 29.6971 118.938 29.8281C118.828 29.9894 118.671 30.0851 118.47 30.1153C118.43 30.1254 118.389 30.1305 118.349 30.1305C118.198 30.1305 118.057 30.0851 117.926 29.9944C117.462 29.6719 116.928 29.3645 116.323 29.0723C116.172 29.0017 116.071 28.8858 116.021 28.7246C116.011 28.6742 116.006 28.6238 116.006 28.5734C116.006 28.4626 116.041 28.3568 116.112 28.256C116.233 28.0947 116.384 27.9889 116.565 27.9385C116.646 27.9184 116.721 27.9083 116.792 27.9083C116.903 27.9083 117.014 27.9285 117.124 27.9688C117.729 28.2409 118.268 28.518 118.742 28.8002ZM117.805 36.8121C117.704 36.9935 117.553 37.1043 117.351 37.1446C117.301 37.1547 117.25 37.1597 117.2 37.1597C117.059 37.1597 116.928 37.1144 116.807 37.0237C116.626 36.9028 116.515 36.7314 116.474 36.5097C116.464 36.4593 116.459 36.4089 116.459 36.3586C116.459 36.2074 116.505 36.0613 116.595 35.9202C117.301 34.7612 117.966 33.5418 118.591 32.2619C118.671 32.1007 118.802 31.9999 118.984 31.9596C119.024 31.9495 119.064 31.9445 119.105 31.9445C119.236 31.9445 119.352 31.9898 119.452 32.0805C119.614 32.2115 119.719 32.3778 119.77 32.5794C119.78 32.6499 119.785 32.7205 119.785 32.791C119.785 32.922 119.755 33.053 119.694 33.184C119.069 34.474 118.44 35.6833 117.805 36.8121ZM122.687 33.8038C122.687 33.8744 122.723 33.9096 122.793 33.9096H127.358C127.429 33.9096 127.464 33.8744 127.464 33.8038V33.048C127.464 32.9774 127.429 32.9422 127.358 32.9422H122.793C122.723 32.9422 122.687 32.9774 122.687 33.048V33.8038ZM127.464 31.1433C127.464 31.0727 127.429 31.0375 127.358 31.0375H122.793C122.723 31.0375 122.687 31.0727 122.687 31.1433V31.8689C122.687 31.9394 122.723 31.9747 122.793 31.9747H127.358C127.429 31.9747 127.464 31.9394 127.464 31.8689V31.1433ZM127.933 29.9491C128.185 29.9491 128.396 30.0347 128.568 30.206C128.739 30.3774 128.825 30.589 128.825 30.8409V36.1923C128.825 36.5349 128.779 36.802 128.689 36.9935C128.598 37.1849 128.437 37.326 128.205 37.4167C127.923 37.5477 127.384 37.6183 126.588 37.6284C126.577 37.6284 126.572 37.6284 126.572 37.6284C126.391 37.6284 126.23 37.5679 126.089 37.447C125.937 37.3361 125.832 37.1849 125.771 36.9935C125.721 36.8524 125.736 36.7214 125.817 36.6004C125.897 36.4795 126.013 36.419 126.164 36.419C126.386 36.4291 126.577 36.4341 126.739 36.4341C126.94 36.4341 127.086 36.4291 127.177 36.419C127.288 36.4089 127.363 36.3888 127.404 36.3586C127.444 36.3182 127.464 36.2477 127.464 36.1469V35.0132C127.464 34.9426 127.429 34.9074 127.358 34.9074H122.793C122.723 34.9074 122.687 34.9426 122.687 35.0132V37.0086C122.687 37.19 122.622 37.3462 122.491 37.4772C122.36 37.6082 122.199 37.6737 122.007 37.6737C121.826 37.6737 121.67 37.6082 121.539 37.4772C121.418 37.3462 121.357 37.19 121.357 37.0086V30.8409C121.357 30.589 121.443 30.3774 121.614 30.206C121.785 30.0347 121.997 29.9491 122.249 29.9491H127.933ZM125.59 28.0292C125.59 28.0998 125.63 28.1351 125.711 28.1351H129.46C129.611 28.1351 129.737 28.1854 129.838 28.2862C129.938 28.387 129.989 28.513 129.989 28.6641C129.989 28.8052 129.938 28.9312 129.838 29.0421C129.737 29.1428 129.611 29.1932 129.46 29.1932H120.495C120.354 29.1932 120.233 29.1428 120.133 29.0421C120.032 28.9312 119.981 28.8052 119.981 28.6641C119.981 28.513 120.032 28.387 120.133 28.2862C120.233 28.1854 120.354 28.1351 120.495 28.1351H124.063C124.134 28.1351 124.169 28.0998 124.169 28.0292V27.3641C124.169 27.2936 124.134 27.2583 124.063 27.2583H121.372C121.231 27.2583 121.11 27.2079 121.009 27.1071C120.919 27.0063 120.873 26.8904 120.873 26.7594C120.873 26.6183 120.919 26.4974 121.009 26.3966C121.11 26.2958 121.231 26.2455 121.372 26.2455H124.063C124.134 26.2455 124.169 26.2102 124.169 26.1396V25.5501C124.169 25.4795 124.134 25.4443 124.063 25.4443H120.994C120.843 25.4443 120.717 25.3939 120.616 25.2931C120.516 25.1923 120.465 25.0714 120.465 24.9303C120.465 24.7791 120.516 24.6532 120.616 24.5524C120.717 24.4516 120.843 24.4012 120.994 24.4012H124.063C124.134 24.4012 124.169 24.3659 124.169 24.2954V24.2047C124.169 24.0031 124.239 23.8369 124.38 23.7058C124.522 23.5648 124.688 23.4942 124.879 23.4942C125.081 23.4942 125.247 23.5648 125.378 23.7058C125.519 23.8369 125.59 24.0031 125.59 24.2047V24.2954C125.59 24.3659 125.625 24.4012 125.696 24.4012H128.976C129.117 24.4012 129.238 24.4516 129.339 24.5524C129.44 24.6532 129.49 24.7791 129.49 24.9303C129.49 25.0714 129.44 25.1923 129.339 25.2931C129.238 25.3939 129.117 25.4443 128.976 25.4443H125.711C125.63 25.4443 125.59 25.4795 125.59 25.5501V26.1396C125.59 26.2102 125.63 26.2455 125.711 26.2455H128.598C128.739 26.2455 128.86 26.2958 128.961 26.3966C129.062 26.4974 129.112 26.6183 129.112 26.7594C129.112 26.8904 129.062 27.0063 128.961 27.1071C128.86 27.2079 128.739 27.2583 128.598 27.2583H125.711C125.63 27.2583 125.59 27.2936 125.59 27.3641V28.0292ZM142.732 26.2001C142.813 26.2001 142.853 26.1648 142.853 26.0943V25.1268C142.853 25.0462 142.813 25.0059 142.732 25.0059H140.329C140.258 25.0059 140.223 25.0462 140.223 25.1268V26.0943C140.223 26.1648 140.258 26.2001 140.329 26.2001H142.732ZM143.322 24.0838C143.574 24.0838 143.785 24.1694 143.957 24.3407C144.128 24.5121 144.214 24.7237 144.214 24.9757V26.2152C144.214 26.4672 144.128 26.6788 143.957 26.8501C143.785 27.0215 143.574 27.1071 143.322 27.1071H139.815C139.563 27.1071 139.351 27.0215 139.18 26.8501C139.008 26.6788 138.923 26.4672 138.923 26.2152V24.9757C138.923 24.7237 139.008 24.5121 139.18 24.3407C139.351 24.1694 139.563 24.0838 139.815 24.0838H143.322ZM136.353 26.2001C136.423 26.2001 136.459 26.1648 136.459 26.0943V25.1268C136.459 25.0462 136.423 25.0059 136.353 25.0059H133.995C133.914 25.0059 133.874 25.0462 133.874 25.1268V26.0943C133.874 26.1648 133.914 26.2001 133.995 26.2001H136.353ZM136.942 24.0838C137.194 24.0838 137.406 24.1694 137.577 24.3407C137.749 24.5121 137.834 24.7237 137.834 24.9757V26.2152C137.834 26.4672 137.749 26.6788 137.577 26.8501C137.406 27.0215 137.194 27.1071 136.942 27.1071H133.481C133.239 27.1071 133.027 27.0215 132.846 26.8501C132.675 26.6788 132.589 26.4672 132.589 26.2152V24.9757C132.589 24.7237 132.675 24.5121 132.846 24.3407C133.027 24.1694 133.239 24.0838 133.481 24.0838H136.942ZM134.463 32.1108C134.463 32.1813 134.499 32.2166 134.569 32.2166H137.441C137.522 32.2166 137.562 32.1813 137.562 32.1108V31.2189C137.562 31.1483 137.522 31.113 137.441 31.113H134.569C134.499 31.113 134.463 31.1483 134.463 31.2189V32.1108ZM134.569 28.9514C134.499 28.9514 134.463 28.9917 134.463 29.0723V29.9339C134.463 30.0045 134.499 30.0398 134.569 30.0398H137.441C137.522 30.0398 137.562 30.0045 137.562 29.9339V29.0723C137.562 28.9917 137.522 28.9514 137.441 28.9514H134.569ZM142.218 30.0398C142.289 30.0398 142.324 30.0045 142.324 29.9339V29.0723C142.324 28.9917 142.289 28.9514 142.218 28.9514H139.15C139.069 28.9514 139.029 28.9917 139.029 29.0723V29.9339C139.029 30.0045 139.069 30.0398 139.15 30.0398H142.218ZM142.218 32.2166C142.289 32.2166 142.324 32.1813 142.324 32.1108V31.2189C142.324 31.1483 142.289 31.113 142.218 31.113H139.15C139.069 31.113 139.029 31.1483 139.029 31.2189V32.1108C139.029 32.1813 139.069 32.2166 139.15 32.2166H142.218ZM144.561 34.3783C144.733 34.3783 144.879 34.4387 145 34.5597C145.131 34.6806 145.196 34.8267 145.196 34.9981C145.196 35.1694 145.131 35.3205 145 35.4516C144.879 35.5725 144.733 35.633 144.561 35.633H139.15C139.069 35.633 139.029 35.6682 139.029 35.7388V36.9481C139.029 37.1497 138.958 37.321 138.817 37.4621C138.676 37.6132 138.499 37.6888 138.288 37.6888C138.086 37.6888 137.915 37.6132 137.774 37.4621C137.633 37.321 137.562 37.1497 137.562 36.9481V35.7388C137.562 35.6682 137.522 35.633 137.441 35.633H132.181C132.009 35.633 131.858 35.5725 131.727 35.4516C131.606 35.3205 131.546 35.1694 131.546 34.9981C131.546 34.8267 131.606 34.6806 131.727 34.5597C131.858 34.4387 132.009 34.3783 132.181 34.3783H137.441C137.522 34.3783 137.562 34.338 137.562 34.2573V33.4864C137.562 33.4058 137.522 33.3654 137.441 33.3654H133.949C133.697 33.3654 133.486 33.2798 133.314 33.1085C133.143 32.9371 133.057 32.7255 133.057 32.4736V28.7095C133.057 28.4575 133.143 28.2459 133.314 28.0746C133.486 27.9033 133.697 27.8176 133.949 27.8176H142.898C143.15 27.8176 143.362 27.9033 143.533 28.0746C143.705 28.2459 143.79 28.4575 143.79 28.7095V32.4736C143.79 32.7255 143.705 32.9371 143.533 33.1085C143.362 33.2798 143.15 33.3654 142.898 33.3654H139.15C139.069 33.3654 139.029 33.4058 139.029 33.4864V34.2573C139.029 34.338 139.069 34.3783 139.15 34.3783H144.561ZM147.04 30.6595C146.889 30.4983 146.814 30.3119 146.814 30.1002C146.814 29.8785 146.889 29.6921 147.04 29.5409C147.202 29.3797 147.388 29.299 147.6 29.299H160.116C160.328 29.299 160.509 29.3797 160.661 29.5409C160.822 29.6921 160.903 29.8785 160.903 30.1002C160.903 30.3119 160.822 30.4983 160.661 30.6595C160.509 30.8107 160.328 30.8863 160.116 30.8863H147.6C147.388 30.8863 147.202 30.8107 147.04 30.6595Z" fill="black"/>
</g>
<defs>
<filter id="filter0_d_863_3558" x="58.0482" y="0.130114" width="251.543" height="59.9834" filterUnits="userSpaceOnUse" color-interpolation-filters="sRGB">
<feFlood flood-opacity="0" result="BackgroundImageFix"/>
<feColorMatrix in="SourceAlpha" type="matrix" values="0 0 0 0 0 0 0 0 0 0 0 0 0 0 0 0 0 0 127 0" result="hardAlpha"/>
<feOffset/>
<feGaussianBlur stdDeviation="1.93494"/>
<feComposite in2="hardAlpha" operator="out"/>
<feColorMatrix type="matrix" values="0 0 0 0 0 0 0 0 0 0 0 0 0 0 0 0 0 0 0.1 0"/>
<feBlend mode="normal" in2="BackgroundImageFix" result="effect1_dropShadow_863_3558"/>
<feBlend mode="normal" in="SourceGraphic" in2="effect1_dropShadow_863_3558" result="shape"/>
</filter>
</defs>
</svg>
